<svg xmlns="http://www.w3.org/2000/svg" fill-rule="evenodd" viewBox="0 0 100 100">
    <path d="M75.974 37.032c-2.375 0-4.722.481-6.901 1.406C67.911 26.703 57.818 17.5 45.579 17.5c-13.016 0-23.605 10.408-23.605 23.202 0 1.373.126 2.745.376 4.104a13.54 13.54 0 0 0-2.192-.178c-7.531 0-13.658 6.028-13.658 13.437s6.127 13.436 13.658 13.436h56.369c.117 0 .231-.014.34-.04 9.352-.461 16.634-7.959 16.634-17.194-.001-9.504-7.863-17.235-17.527-17.235zm.502 31.442a1.47 1.47 0 0 0-.232.026H20.158C14.282 68.5 9.5 63.818 9.5 58.064c0-5.755 4.781-10.437 10.658-10.437 1.257 0 2.51.226 3.724.67a1.5 1.5 0 0 0 1.951-1.843 19.857 19.857 0 0 1-.859-5.752c0-11.14 9.244-20.202 20.605-20.202s20.605 9.062 20.606 20.152a4.93 4.93 0 0 0-.007.17 1.499 1.499 0 0 0 2.268 1.288 14.707 14.707 0 0 1 7.527-2.079c8.01 0 14.526 6.386 14.526 14.234.001 7.704-6.159 13.944-14.023 14.209z"/>
</svg>
