<svg xmlns="http://www.w3.org/2000/svg" fill-rule="evenodd" viewBox="0 0 100 100">
    <path d="M88.853 76.777 54.048 13.21c-.929-1.696-2.629-2.709-4.548-2.709s-3.619 1.013-4.548 2.709L10.147 76.777a5.182 5.182 0 0 0 .088 5.176 5.141 5.141 0 0 0 4.461 2.547h69.607a5.141 5.141 0 0 0 4.461-2.547 5.18 5.18 0 0 0 .089-5.176zm-2.669 3.647a2.14 2.14 0 0 1-1.88 1.076H14.697c-.79 0-1.475-.392-1.88-1.076s-.42-1.509-.038-2.207L47.584 14.65c.395-.72 1.111-1.15 1.917-1.15s1.522.43 1.917 1.15l34.805 63.567a2.213 2.213 0 0 1-.039 2.207z"/>
    <path d="M46.995 69.325a2.5 2.5 0 1 0 4.992.288 2.5 2.5 0 1 0-4.992-.288zM49.5 59.5A1.5 1.5 0 0 0 51 58V34a1.5 1.5 0 1 0-3 0v24a1.5 1.5 0 0 0 1.5 1.5z"/>
</svg>
